<svg width="77" height="70" viewBox="0 0 77 70" fill="none" xmlns="http://www.w3.org/2000/svg">
<g clip-path="url(#clip0_224_1235)">
<path d="M16.5477 0.278687H0V37.7347H16.5477V0.278687Z" fill="#FE734C"/>
<path d="M76.7213 0.278688H60.1736V37.7347H76.7213V0.278688Z" fill="#FE734C"/>
<path d="M36.6056 14.3348V69.6229H20.0579V0.278688H24.5709C24.5709 0.364736 24.5709 0.445722 24.5709 0.53177C24.5706 3.91636 25.7924 7.18502 28.0077 9.72577C30.2229 12.2665 33.2797 13.9051 36.6056 14.3348V14.3348Z" fill="#FE734C"/>
<path d="M56.6634 0.278688V69.6229H40.1157V14.3348C43.4416 13.9051 46.4984 12.2665 48.7136 9.72577C50.9289 7.18502 52.1507 3.91636 52.1504 0.53177C52.1504 0.445722 52.1504 0.364736 52.1504 0.278688H56.6634Z" fill="#FE734C"/>
</g>
<defs>
<clipPath id="clip0_224_1235">
<rect width="76.7213" height="69.3443" fill="white" transform="translate(0 0.278687)"/>
</clipPath>
</defs>
</svg>
