<svg width="25" height="24" viewBox="0 0 25 24" fill="none" xmlns="http://www.w3.org/2000/svg">
<path d="M15.75 6C15.75 7.79493 14.2949 9.25 12.5 9.25C10.7051 9.25 9.25 7.79493 9.25 6C9.25 4.20507 10.7051 2.75 12.5 2.75C14.2949 2.75 15.75 4.20507 15.75 6Z" stroke="#1B1B1B" stroke-width="1.5"/>
<path d="M18.75 17C18.75 18.0756 18.1409 19.1202 17.0138 19.9252C15.8882 20.7293 14.2947 21.25 12.5 21.25C10.7053 21.25 9.11181 20.7293 7.98618 19.9252C6.85911 19.1202 6.25 18.0756 6.25 17C6.25 15.9244 6.85911 14.8798 7.98618 14.0748C9.11181 13.2707 10.7053 12.75 12.5 12.75C14.2947 12.75 15.8882 13.2707 17.0138 14.0748C18.1409 14.8798 18.75 15.9244 18.75 17Z" stroke="#1B1B1B" stroke-width="1.5"/>
</svg>
