<svg width="32" height="32" viewBox="0 0 32 32" fill="none" xmlns="http://www.w3.org/2000/svg">
<path d="M4.37295 18.0637C4.52275 15.6668 4.63101 13.9668 4.88204 12.6805C5.12755 11.4224 5.48605 10.6986 6.04336 10.1751C6.60067 9.65152 7.34535 9.33885 8.61629 9.17231C9.91579 9.00201 11.6192 9 14.0208 9H17.9792C20.3806 9 22.0841 9.00201 23.3837 9.17231C24.6546 9.33885 25.3993 9.65152 25.9566 10.1751C26.5138 10.6986 26.8724 11.4224 27.118 12.6805C27.3689 13.9668 27.4772 15.6668 27.627 18.0637C27.7948 20.7491 27.9121 22.6601 27.8038 24.1139C27.6978 25.5388 27.3838 26.3611 26.8145 26.9671C26.2452 27.5731 25.4441 27.9377 24.0286 28.1324C22.5845 28.3311 20.6698 28.3333 17.9792 28.3333H14.0208C11.3302 28.3333 9.41548 28.3311 7.97131 28.1324C6.5558 27.9377 5.75475 27.5731 5.18547 26.9671C4.61617 26.3611 4.30209 25.5388 4.19607 24.1139C4.08789 22.6601 4.20511 20.7491 4.37295 18.0637Z" stroke="#1B1B1B" stroke-width="1.5"/>
<path fill-rule="evenodd" clip-rule="evenodd" d="M10.4688 12.0001C11.1861 12.0001 11.6429 11.1562 11.4703 10.46C11.3808 10.0992 11.3334 9.72185 11.3334 9.33341C11.3334 6.75608 13.4227 4.66675 16 4.66675C18.5774 4.66675 20.6667 6.75608 20.6667 9.33341C20.6667 9.72185 20.6192 10.0992 20.5298 10.46C20.3572 11.1562 20.814 12.0001 21.5312 12.0001C21.884 12.0001 22.2084 11.7928 22.3208 11.4584C22.5451 10.791 22.6667 10.0764 22.6667 9.33341C22.6667 5.65152 19.6819 2.66675 16 2.66675C12.3181 2.66675 9.33337 5.65152 9.33337 9.33341C9.33337 10.0764 9.45492 10.791 9.67921 11.4584C9.79157 11.7928 10.1161 12.0001 10.4688 12.0001Z" fill="#1B1B1B"/>
<path d="M11.3333 17.3333C11.7015 17.3333 12 17.0349 12 16.6667C12 16.2985 11.7015 16 11.3333 16C10.9651 16 10.6666 16.2985 10.6666 16.6667C10.6666 17.0349 10.9651 17.3333 11.3333 17.3333Z" stroke="#1B1B1B"/>
<path d="M20.6667 17.3333C21.0349 17.3333 21.3333 17.0349 21.3333 16.6667C21.3333 16.2985 21.0349 16 20.6667 16C20.2985 16 20 16.2985 20 16.6667C20 17.0349 20.2985 17.3333 20.6667 17.3333Z" stroke="#1B1B1B"/>
</svg>
